Land_normalized_Motion_pl07
version=1
nRows=12
nColumns=43
inDegrees=yes
endheader
time		pelvis_tilt		pelvis_list		pelvis_rotation		pelvis_tx		pelvis_ty		pelvis_tz		hip_flexion_r		hip_adduction_r		hip_rotation_r		knee_angle_r		ankle_angle_r		subtalar_angle_r		mtp_angle_r		hip_flexion_l		hip_adduction_l		hip_rotation_l		knee_angle_l		ankle_angle_l		subtalar_angle_l		mtp_angle_l		lumbar_extension		lumbar_bending		lumbar_rotation		neck_flexion		neck_lateral_bending		neck_rotation		arm_flex_r		arm_add_r		arm_rot_r		elbow_flex_r		pro_sup_r		wrist_flex_r		wrist_dev_r		hand_finger_flex_r		arm_flex_l		arm_add_l		arm_rot_l		elbow_flex_l		pro_sup_l		wrist_flex_l		wrist_dev_l		hand_finger_flex_l		
0.580000		1.155421		3.915804		88.364887		0.005306		1.024279		0.606375		26.788358		-3.687804		-13.371687		-24.900854		-16.184779		0.620932		-0.495641		28.357818		-8.053413		-9.270942		-27.196501		-25.782536		8.133959		16.678639		-27.706077		-0.143852		4.199225		-21.879226		1.998036		-3.086139		-56.720973		-8.950758		-35.273235		65.150209		104.116217		0.573793		-20.180016		5.972561		-56.788156		-12.678175		-29.610180		43.159278		114.850223		-25.050805		-9.934581		-10.650042		
0.582955		1.071903		4.051816		88.527851		0.004490		1.012266		0.601827		27.583448		-3.924622		-12.678173		-26.823425		-16.137359		0.965655		-0.466511		29.230697		-7.835432		-8.329482		-29.132437		-26.075525		7.693083		16.512147		-28.033028		-0.125770		4.114546		-21.283890		1.803164		-3.171460		-55.618031		-8.878787		-35.164306		64.418210		103.664165		0.580907		-20.295086		6.031188		-55.899892		-12.611809		-29.636322		42.953824		114.699573		-25.409863		-10.072434		-10.686349		
0.585909		1.017147		4.339134		88.633174		0.003696		1.000380		0.597223		28.205077		-4.121306		-12.107500		-28.675993		-16.315998		1.251882		-0.486937		29.926487		-7.675448		-7.570036		-31.064520		-26.499119		7.329920		16.345452		-28.515075		-0.088571		4.071722		-20.872219		1.617643		-3.249492		-54.491545		-8.875547		-35.066814		63.771046		103.274727		0.578424		-20.351416		6.072684		-55.013269		-12.554460		-29.571631		42.840111		114.547301		-25.658728		-10.188076		-10.704229		
0.588864		0.974167		4.567284		88.723908		0.002940		0.988288		0.592732		28.955606		-4.282435		-11.481527		-30.595232		-16.580038		1.523944		-0.476489		30.712494		-7.481228		-6.778842		-32.987244		-27.039074		6.688421		16.213259		-28.959972		-0.051172		4.011414		-20.370499		1.467233		-3.420403		-53.306172		-8.908652		-34.953737		63.122343		102.627022		0.637516		-20.553669		6.175999		-54.101319		-12.501850		-29.363826		42.695765		114.282947		-25.990113		-10.424036		-10.726887		
0.591818		0.952004		4.869824		88.817728		0.002277		0.976199		0.588222		29.638621		-4.405931		-10.850827		-32.504863		-16.834130		1.770832		-0.447715		31.430654		-7.321292		-6.067422		-34.908010		-27.504631		6.205699		16.140572		-29.497633		0.002890		3.984573		-19.840865		1.285762		-3.555036		-52.118571		-8.949750		-34.808668		62.565911		102.098251		0.674612		-20.686729		6.258275		-53.173268		-12.476808		-29.151448		42.652434		114.061032		-26.255796		-10.627206		-10.740522		
0.594773		0.918027		5.104946		88.863209		0.001705		0.963748		0.583925		30.521023		-4.469109		-9.922157		-34.613740		-16.699591		2.255659		0.331915		32.238930		-7.113345		-5.267490		-36.866776		-27.536948		5.714642		16.993434		-30.067074		0.018868		3.979243		-18.672748		1.083831		-3.894716		-50.924471		-9.013056		-34.613019		62.062658		101.072780		0.744985		-21.082007		6.496758		-52.211434		-12.520355		-28.636609		42.573136		113.616149		-26.815224		-11.042948		-10.757977		
0.597727		0.955189		5.497346		88.852513		0.001166		0.951542		0.579493		31.177908		-4.403996		-9.044351		-36.637645		-16.402871		2.527388		1.499157		32.843807		-7.025006		-4.598549		-38.830019		-27.312284		5.728338		18.320211		-30.787936		0.097486		3.973955		-17.681667		0.821483		-3.999119		-49.702541		-9.157744		-34.410829		61.813708		100.749842		0.650174		-21.063753		6.611981		-51.336464		-12.464139		-28.211223		42.738548		113.431826		-27.007905		-11.177949		-10.681234		
0.600682		0.933632		5.953488		88.853876		0.000648		0.939273		0.574945		31.753542		-4.442673		-8.294230		-38.775148		-15.875639		3.187198		9.365153		33.339557		-6.926905		-4.110373		-40.813880		-26.945642		5.795975		27.211895		-31.566638		0.122991		4.158326		-16.746575		0.640693		-4.248943		-48.683429		-9.375406		-33.877603		61.552215		99.438662		0.216104		-21.314703		7.443698		-50.296153		-12.773964		-27.067662		42.743958		112.353088		-28.067407		-11.577369		-10.142811		
0.603636		1.001518		6.432239		88.819309		0.000235		0.927057		0.570367		32.216694		-4.233072		-7.308634		-40.935528		-13.611690		3.895711		10.838283		33.886897		-6.884009		-3.496627		-43.240696		-24.399526		6.261429		28.568256		-32.351189		0.205242		4.208697		-15.954331		0.343047		-4.456657		-47.380677		-9.485545		-33.875974		61.318919		99.547393		0.405636		-21.511094		7.527528		-49.428193		-12.709101		-26.821904		43.054646		112.859107		-28.188541		-11.903692		-10.133517		
0.606591		1.099350		6.887116		88.820738		-0.000141		0.914776		0.565847		32.757331		-3.989055		-6.472403		-43.390425		-10.549882		4.656240		12.783751		34.443470		-6.868274		-2.884220		-45.789741		-21.090201		7.022143		30.292942		-33.124627		0.325646		4.280932		-15.133876		0.113928		-4.643736		-46.121107		-9.625788		-33.788327		61.169899		99.545252		0.652228		-21.791022		7.583297		-48.469446		-12.708579		-26.490113		43.324242		113.394825		-28.399340		-12.161397		-10.137199		
0.609545		1.183165		7.225654		88.782114		-0.000550		0.902339		0.561500		33.424637		-3.709479		-5.727543		-45.986522		-6.820979		4.994759		14.267518		35.184077		-6.812042		-2.239298		-48.605809		-17.104766		7.640212		31.519903		-33.789032		0.424627		4.379057		-14.319250		-0.059024		-4.791080		-44.885632		-9.840255		-33.614155		61.139423		99.514609		0.862333		-22.027829		7.609723		-47.456809		-12.713759		-26.087766		43.605782		113.810727		-28.590582		-12.402818		-10.132975		
0.612500		1.305814		7.515536		88.734997		-0.000944		0.889876		0.557365		34.133396		-3.375978		-5.115694		-48.666467		-2.706107		5.213919		15.406627		36.043764		-6.796505		-1.589464		-51.635626		-12.751144		8.399566		32.329176		-34.446683		0.558759		4.504974		-13.364200		-0.283873		-4.924876		-43.604902		-10.097531		-33.406617		61.138354		99.514205		1.086287		-22.278392		7.647524		-46.414506		-12.731904		-25.627855		43.950131		114.241535		-28.816109		-12.685979		-10.107516		
